<?xml version="1.0" encoding="UTF-8"?>
<svg width="25px" height="25px" viewBox="0 0 25 25" version="1.1" xmlns="http://www.w3.org/2000/svg" xmlns:xlink="http://www.w3.org/1999/xlink">
    <!-- Generator: Sketch 48.2 (47327) - http://www.bohemiancoding.com/sketch -->
    <title>cross-remove-sign</title>
    <desc>Created with Sketch.</desc>
    <defs></defs>
    <g id="Консультация" stroke="none" stroke-width="1" fill="none" fill-rule="evenodd" transform="translate(-1225.000000, -30.000000)" opacity="0.8">
        <g id="cross-remove-sign" transform="translate(1225.000000, 30.000000)" fill="#068DE3" fill-rule="nonzero">
            <path d="M16.3292495,12.46963 L24.7860865,4.01253301 C24.9891047,3.80951485 24.9891047,3.48042267 24.7860865,3.27740452 L21.6617904,0.152328605 C21.5643105,0.0548486955 21.4317379,0 21.2942262,0 C21.1564546,0 21.0241419,0.0548486955 20.926662,0.152328605 L12.469305,8.60968552 L4.01194813,0.152328605 C3.81698831,-0.0426312136 3.47177946,-0.0426312136 3.27681964,0.152328605 L0.152263618,3.27740452 C-0.0507545393,3.48042267 -0.0507545393,3.80951485 0.152263618,4.01253301 L8.60936059,12.46963 L0.152263618,20.9267269 C-0.0507545393,21.1297451 -0.0507545393,21.4588373 0.152263618,21.6618554 L3.27681964,24.7866714 C3.37429955,24.8841513 3.50661228,24.939 3.64438388,24.939 C3.78215549,24.939 3.91446822,24.8841513 4.01194813,24.7866714 L12.469305,16.3293145 L20.926662,24.7866714 C21.0241419,24.8841513 21.1564546,24.939 21.2942262,24.939 C21.4317379,24.939 21.5643105,24.8841513 21.6617904,24.7866714 L24.7863465,21.6618554 C24.9893646,21.4588373 24.9893646,21.1294852 24.7863465,20.9267269 L16.3292495,12.46963 Z" id="Shape"></path>
        </g>
    </g>
</svg>