<?xml version="1.0" encoding="UTF-8"?>
<svg width="10px" height="20px" viewBox="0 0 10 20" version="1.1" xmlns="http://www.w3.org/2000/svg" xmlns:xlink="http://www.w3.org/1999/xlink">
    <!-- Generator: Sketch 48.2 (47327) - http://www.bohemiancoding.com/sketch -->
    <title>facebook (1)</title>
    <desc>Created with Sketch.</desc>
    <defs></defs>
    <g id="Artboard" stroke="none" stroke-width="1" fill="none" fill-rule="evenodd" transform="translate(-451.000000, -339.000000)">
        <g id="Group-8-Copy" transform="translate(410.000000, 339.000000)" fill="#45B7FF" fill-rule="nonzero">
            <g id="facebook-(1)" transform="translate(41.000000, 0.000000)">
                <path d="M0.319294997,10.652 L2.48928765,10.652 L2.48928765,19.6774194 C2.48928765,19.8556129 2.63220409,20 2.80858265,20 L6.48788275,20 C6.66426131,20 6.80717775,19.8556129 6.80717775,19.6774194 L6.80717775,10.6945161 L9.3017657,10.6945161 C9.46396756,10.6945161 9.60043424,10.5715484 9.61895335,10.4087742 L9.99782879,7.08606452 C10.0082378,6.99464516 9.97956512,6.90309677 9.91902679,6.83451613 C9.8584246,6.76587097 9.77170408,6.72658065 9.680705,6.72658065 L6.80730547,6.72658065 L6.80730547,4.64374194 C6.80730547,4.01587097 7.14192663,3.69748387 7.80197324,3.69748387 C7.89603755,3.69748387 9.680705,3.69748387 9.680705,3.69748387 C9.85708356,3.69748387 10,3.55303226 10,3.37490323 L10,0.324967742 C10,0.146774194 9.85708356,0.00238709677 9.680705,0.00238709677 L7.09154188,0.00238709677 C7.0732782,0.00148387097 7.03272774,0 6.97295571,0 C6.52370765,0 4.96216354,0.0890967742 3.72866311,1.23554839 C2.36195281,2.506 2.55193333,4.02716129 2.59733708,4.29090323 L2.59733708,6.72651613 L0.319294997,6.72651613 C0.14291644,6.72651613 0,6.87090323 0,7.04909677 L0,10.3293548 C0,10.5075484 0.14291644,10.652 0.319294997,10.652 Z" id="XMLID_835_"></path>
            </g>
        </g>
    </g>
</svg>