<?xml version="1.0" encoding="UTF-8"?>
<svg width="18px" height="18px" viewBox="0 0 18 18" version="1.1" xmlns="http://www.w3.org/2000/svg" xmlns:xlink="http://www.w3.org/1999/xlink">
    <!-- Generator: Sketch 48.2 (47327) - http://www.bohemiancoding.com/sketch -->
    <title>instagram (1)</title>
    <desc>Created with Sketch.</desc>
    <defs></defs>
    <g id="footer-1" stroke="none" stroke-width="1" fill="none" fill-rule="evenodd" transform="translate(-1190.000000, -43.000000)" opacity="0.699999988">
        <g id="Group-8" transform="translate(1121.000000, 42.000000)" fill="#FFFFFF" fill-rule="nonzero">
            <g id="instagram-(1)" transform="translate(69.000000, 1.000000)">
                <path d="M2.3112,0.00072 L15.68988,0.00072 C16.96092,0.00072 18,1.04016 18,2.3112 L18,15.68988 C18,16.96056 16.96092,17.99928 15.68988,17.99928 L2.3112,17.99928 C1.04016,17.99928 0,16.9605 0,15.68988 L0,2.3112 C0,1.04016 1.04016,0.00072 2.3112,0.00072 Z M13.11276,1.99974 C12.66648,1.99974 12.30246,2.3652 12.30246,2.81124 L12.30246,4.75008 C12.30246,5.1963 12.66648,5.56092 13.11276,5.56092 L15.14694,5.56092 C15.5925,5.56092 15.9573,5.1963 15.9573,4.75008 L15.9573,2.81124 C15.9573,2.3652 15.5925,1.99974 15.14694,1.99974 L13.11276,1.99974 Z M15.96504,7.61208 L14.38128,7.61208 C14.53146,8.10258 14.61288,8.61984 14.61288,9.15762 C14.61288,12.15054 12.10692,14.57802 9.01692,14.57802 C5.9277,14.57802 3.42168,12.15054 3.42168,9.15762 C3.42168,8.61984 3.50388,8.10258 3.65334,7.61208 L2.001,7.61208 L2.001,15.216 C2.001,15.60978 2.32254,15.93012 2.71596,15.93012 L15.25038,15.93012 C15.64416,15.93012 15.96504,15.60978 15.96504,15.216 L15.96504,7.61208 Z M9.01698,5.45868 C7.02138,5.45868 5.40258,7.02636 5.40258,8.96196 C5.40258,10.89558 7.02138,12.46446 9.01698,12.46446 C11.01366,12.46446 12.63252,10.89558 12.63252,8.96196 C12.63252,7.0263 11.01366,5.45868 9.01698,5.45868 Z" id="XMLID_505_"></path>
            </g>
        </g>
    </g>
</svg>