<?xml version="1.0" encoding="UTF-8"?>
<svg width="18px" height="18px" viewBox="0 0 18 18" version="1.1" xmlns="http://www.w3.org/2000/svg" xmlns:xlink="http://www.w3.org/1999/xlink">
    <!-- Generator: Sketch 48.2 (47327) - http://www.bohemiancoding.com/sketch -->
    <title>instagram (1)</title>
    <desc>Created with Sketch.</desc>
    <defs></defs>
    <g id="Artboard" stroke="none" stroke-width="1" fill="none" fill-rule="evenodd" transform="translate(-479.000000, -340.000000)">
        <g id="Group-8-Copy" transform="translate(410.000000, 339.000000)" fill="#45B7FF" fill-rule="nonzero">
            <g id="instagram-(1)" transform="translate(69.000000, 1.000000)">
                <path d="M2.3112,0 L15.68988,0 C16.96092,0 18,1.03952316 18,2.31066485 L18,15.6904152 C18,16.9611969 16.96092,18 15.68988,18 L2.3112,18 C1.04016,18 0,16.9611369 0,15.6904152 L0,2.31066485 C0,1.03952316 1.04016,0 2.3112,0 Z M13.11276,1.99917993 C12.66648,1.99917993 12.30246,2.36466917 12.30246,2.81074486 L12.30246,4.74973998 C12.30246,5.19599568 12.66648,5.56064485 13.11276,5.56064485 L15.14694,5.56064485 C15.5925,5.56064485 15.9573,5.19599568 15.9573,4.74973998 L15.9573,2.81074486 C15.9573,2.36466917 15.5925,1.99917993 15.14694,1.99917993 L13.11276,1.99917993 Z M15.96504,7.61196896 L14.38128,7.61196896 C14.53146,8.1025082 14.61288,8.61980958 14.61288,9.15763261 C14.61288,12.1507921 12.10692,14.5784663 9.01692,14.5784663 C5.9277,14.5784663 3.42168,12.1507921 3.42168,9.15763261 C3.42168,8.61980958 3.50388,8.1025082 3.65334,7.61196896 L2.001,7.61196896 L2.001,15.2164973 C2.001,15.6103088 2.32254,15.9306745 2.71596,15.9306745 L15.25038,15.9306745 C15.64416,15.9306745 15.96504,15.6103088 15.96504,15.2164973 L15.96504,7.61196896 Z M9.01698,5.45839667 C7.02138,5.45839667 5.40258,7.0262021 5.40258,8.96195696 C5.40258,10.8957317 7.02138,12.4647372 9.01698,12.4647372 C11.01366,12.4647372 12.63252,10.8957317 12.63252,8.96195696 C12.63252,7.02614209 11.01366,5.45839667 9.01698,5.45839667 Z" id="XMLID_505_"></path>
            </g>
        </g>
    </g>
</svg>