<?xml version="1.0" encoding="UTF-8"?>
<svg width="86px" height="64px" viewBox="0 0 86 64" version="1.1" xmlns="http://www.w3.org/2000/svg" xmlns:xlink="http://www.w3.org/1999/xlink">
    <!-- Generator: Sketch 48.2 (47327) - http://www.bohemiancoding.com/sketch -->
    <title>Escalada_base</title>
    <desc>Created with Sketch.</desc>
    <defs>
        <polygon id="path-1" points="0.0192588643 0.143706792 59.4264356 0.143706792 59.4264356 36.8782699 0.0192588643 36.8782699"></polygon>
    </defs>
    <g id="Клубные-карты-ver-2." stroke="none" stroke-width="1" fill="none" fill-rule="evenodd" transform="translate(-70.000000, -22.000000)">
        <g id="Escalada_base" transform="translate(70.000000, 22.000000)">
            <polyline id="Fill-1" fill="#00A3DA" points="12.2388766 38.3168317 9.95041322 32.1860239 60.2563469 13.4818482 62.5454545 19.612656 12.2388766 38.3168317"></polyline>
            <polyline id="Fill-2" fill="#26628D" points="22.1868587 27.6732673 19.9008264 21.5411914 48.8694143 10.6435644 51.1735537 16.8242351 22.1868587 27.6732673"></polyline>
            <g id="Group-6" transform="translate(22.033058, 0.000000)">
                <polyline id="Fill-3" fill="#005A8A" points="0.0998271976 27.5986139 0.0778587528 27.5397277 29.0396995 16.8356436 29.0435763 16.8465842 0.0998271976 27.5986139"></polyline>
                <polyline id="Fill-5" fill="#00A3DA" points="18.5533208 13.7777475 16.2576183 7.66485149 36.7683922 0.0801237624 39.0644177 6.1930198 18.5533208 13.7777475"></polyline>
            </g>
            <polyline id="Fill-7" fill="#00A3DA" points="49.1797997 38.3168317 46.9090909 32.1498759 73.778878 21.9966997 76.0495868 28.1633308 49.1797997 38.3168317"></polyline>
            <polyline id="Fill-8" fill="#26628D" points="32.1236491 37.6072607 29.8512397 31.5362662 57.4342278 21.2871287 59.7024793 27.3462989 47.2875441 31.9613029 47.2910622 31.9715294 32.1236491 37.6072607"></polyline>
            <g id="Group-14" transform="translate(0.000000, 26.963696)">
                <mask id="mask-2" fill="white">
                    <use xlink:href="#path-1"></use>
                </mask>
                <g id="Clip-10"></g>
                <polyline id="Fill-9" fill="#005A8A" mask="url(#mask-2)" points="46.9659504 4.82809507 46.9624196 4.81773783 59.4219419 0.143706792 59.4264356 0.155682358 46.9659504 4.82809507"></polyline>
                <polyline id="Fill-11" fill="#FFFFFF" mask="url(#mask-2)" points="0 22.1444398 8.91268142 22.1444398 8.91268142 24.3605668 2.76717782 24.3605668 2.76717782 28.3202716 8.46491282 28.3202716 8.46491282 30.41373 2.76717782 30.41373 2.76717782 34.4352545 9.38067182 34.4352545 9.38067182 36.6510578 0 36.6510578 0 22.1444398"></polyline>
                <path d="M11.4644809,36.4254641 L11.7899557,34.291224 C13.0716332,34.5171415 14.1706724,34.6611719 15.0049022,34.6611719 C16.5719318,34.6611719 17.2026596,34.1889462 17.2026596,33.5730137 C17.2026596,31.7883307 11.6066756,32.4450449 11.6066756,28.5872943 C11.6066756,26.2685658 13.6211528,25.1606641 16.0021903,25.1606641 C17.060144,25.1606641 18.3016987,25.3658671 19.3188878,25.7555585 L18.8303546,27.787197 C18.0166676,27.5408888 16.9991576,27.3560767 16.0833986,27.3560767 C14.8017211,27.3560767 14.2929661,27.787197 14.2929661,28.3613769 C14.2929661,30.2082033 19.8478646,29.5722037 19.8478646,33.4503451 C19.8478646,36.158765 17.1009086,36.8976898 14.9439158,36.8976898 C13.9264058,36.8976898 12.4412263,36.7329448 11.4644809,36.4254641" id="Fill-12" fill="#FFFFFF" mask="url(#mask-2)"></path>
                <path d="M21.7098758,31.3164287 C21.7098758,27.2330844 23.9073122,25.1606641 27.5295836,25.1606641 C28.9945412,25.1606641 30.0730376,25.5092502 30.7852946,25.8992652 L30.0730376,27.9305802 C29.4423098,27.6845956 28.709831,27.4175728 27.6720992,27.4175728 C25.6778438,27.4175728 24.4773746,28.3820914 24.4773746,31.2342181 C24.4773746,33.4296306 25.2095324,34.6611719 28.0177958,34.6611719 C28.8523466,34.6611719 29.3813234,34.5378559 30.3173042,34.3533675 L30.7040864,36.4665694 C29.7677846,36.6921632 29.0353058,36.8976898 27.692321,36.8976898 C23.3783354,36.8976898 21.7098758,34.9890435 21.7098758,31.3164287" id="Fill-13" fill="#FFFFFF" mask="url(#mask-2)"></path>
            </g>
            <path d="M39.5741679,61.082693 L39.5741679,58.9238695 L37.4873683,59.0042697 C36.2065434,59.0241333 35.3800364,59.5238755 35.3800364,60.4836329 C35.3800364,61.3825384 36.10323,61.7826475 37.0327244,61.7826475 C37.7973084,61.7826475 38.8095839,61.4629386 39.5741679,61.082693 Z M32.6942149,60.6828992 C32.6942149,57.8846578 35.2356585,57.3451884 37.3429904,57.3253248 L39.5741679,57.3054613 L39.5741679,56.3655675 C39.5741679,55.10628 38.8509744,54.7667075 37.3221321,54.7667075 C36.1446205,54.7667075 35.0700963,54.9669197 34.057495,55.2667651 L33.4998636,53.3075232 C34.739298,52.8276445 36.0204489,52.5082508 37.8181667,52.5082508 C40.7930701,52.5082508 42.2603154,53.4471988 42.2603154,55.7658767 L42.2603154,61.0631448 C42.2603154,61.6026142 42.756024,61.7224262 43.3553719,61.7429203 L43.2517326,63.7611224 C43.0454318,63.7816166 42.8179469,63.7816166 42.7149594,63.7816166 C41.3304951,63.7816166 40.0907348,63.5214983 39.8221852,62.5421927 C38.9748201,63.1816105 37.9006218,63.8613861 36.2479339,63.8613861 C34.1402761,63.8613861 32.6942149,62.7424049 32.6942149,60.6828992 Z" id="Fill-15" fill="#FFFFFF"></path>
            <polygon id="Fill-16" fill="#FFFFFF" points="45.4876033 63.8613861 48.3305785 63.8613861 48.3305785 48.2508251 45.4876033 48.2508251"></polygon>
            <path d="M57.3430889,61.082693 L57.3430889,58.9238695 L55.2559634,59.0042697 C53.9754643,59.0241333 53.1486315,59.5238755 53.1486315,60.4836329 C53.1486315,61.3825384 53.871825,61.7826475 54.8016453,61.7826475 C55.5659035,61.7826475 56.5785048,61.4629386 57.3430889,61.082693 Z M50.4628099,60.6828992 C50.4628099,57.8846578 53.0039276,57.3451884 55.1115854,57.3253248 L57.3430889,57.3054613 L57.3430889,56.3655675 C57.3430889,55.10628 56.6198953,54.7667075 55.0907272,54.7667075 C53.9132156,54.7667075 52.8386914,54.9669197 51.826416,55.2667651 L51.2684586,53.3075232 C52.508219,52.8276445 53.789044,52.5082508 55.5867617,52.5082508 C58.5619911,52.5082508 60.0289105,53.4471988 60.0289105,55.7658767 L60.0289105,61.0631448 C60.0289105,61.6026142 60.5246191,61.7224262 61.1239669,61.7429203 L61.0206536,63.7611224 C60.8140268,63.7816166 60.5868678,63.7816166 60.4835544,63.7816166 C59.0990902,63.7816166 57.8596557,63.5214983 57.5907802,62.5421927 C56.743741,63.1816105 55.6692168,63.8613861 54.0165289,63.8613861 C51.909197,63.8613861 50.4628099,62.7424049 50.4628099,60.6828992 Z" id="Fill-17" fill="#FFFFFF"></path>
            <path d="M69.8594335,60.8746223 L69.8594335,54.6138746 C69.6415024,54.5725666 69.026793,54.3886168 68.2538725,54.3886168 C65.9945184,54.3886168 65.201587,55.9644534 65.201587,58.0918167 C65.201587,60.6903497 66.3509623,61.5904129 67.6988831,61.5904129 C68.5315236,61.5904129 69.3441532,61.1812053 69.8594335,60.8746223 Z M62.5454545,58.2554353 C62.5454545,54.0000632 65.0030415,52.2202682 68.2141634,52.2202682 C68.7494546,52.2202682 69.1259094,52.2609308 69.8594335,52.4045407 L69.8594335,48.2508251 L72.4958678,48.2508251 L72.4958678,63.6771136 L69.8594335,63.6771136 L69.8594335,62.7770505 C69.2650476,63.2682287 68.5909309,63.8613861 67.203301,63.8613861 C65.2209726,63.8613861 62.5454545,62.7160566 62.5454545,58.2554353 Z" id="Fill-18" fill="#FFFFFF"></path>
            <path d="M82.218796,61.082693 L82.218796,58.9238695 L80.1323224,59.0042697 C78.8511715,59.0241333 78.0246645,59.5238755 78.0246645,60.4836329 C78.0246645,61.3825384 78.748184,61.7826475 79.6773525,61.7826475 C80.4419365,61.7826475 81.454212,61.4629386 82.218796,61.082693 Z M75.338843,60.6828992 C75.338843,57.8846578 77.8802866,57.3451884 79.9872926,57.3253248 L82.218796,57.3054613 L82.218796,56.3655675 C82.218796,55.10628 81.4959284,54.7667075 79.9670862,54.7667075 C78.7892486,54.7667075 77.7150504,54.9669197 76.702449,55.2667651 L76.1444917,53.3075232 C77.384252,52.8276445 78.6654029,52.5082508 80.4627948,52.5082508 C83.4376982,52.5082508 84.9046176,53.4471988 84.9046176,55.7658767 L84.9046176,61.0631448 C84.9046176,61.6026142 85.400978,61.7224262 86,61.7429203 L85.8966866,63.7611224 C85.6900599,63.7816166 85.4629009,63.7816166 85.3595875,63.7816166 C83.9754491,63.7816166 82.7353629,63.5214983 82.4668133,62.5421927 C81.6197741,63.1816105 80.5452499,63.8613861 78.892562,63.8613861 C76.7849042,63.8613861 75.338843,62.7424049 75.338843,60.6828992 Z" id="Fill-19" fill="#FFFFFF"></path>
        </g>
    </g>
</svg>