<?xml version="1.0" encoding="UTF-8"?>
<svg width="50px" height="43px" viewBox="0 0 50 43" version="1.1" xmlns="http://www.w3.org/2000/svg" xmlns:xlink="http://www.w3.org/1999/xlink">
    <!-- Generator: Sketch 48.2 (47327) - http://www.bohemiancoding.com/sketch -->
    <title>004-travel</title>
    <desc>Created with Sketch.</desc>
    <defs></defs>
    <g id="Главная-ver.33" stroke="none" stroke-width="1" fill="none" fill-rule="evenodd" transform="translate(-420.000000, -1057.000000)">
        <g id="2-block" transform="translate(0.000000, 659.000000)" fill="#45B7FF" fill-rule="nonzero">
            <g id="004-travel" transform="translate(420.000000, 398.000000)">
                <path d="M49.1967773,31.3773529 C48.7802734,31.3074328 48.36875,31.4945189 48.1689453,31.8287626 C48.009082,31.9789916 46.2121094,33.4301513 36.7324219,33.4301513 C31.0791016,33.4301513 27.5488281,32.2456639 24.1347656,31.1001113 C20.7335938,29.958895 17.2166016,28.7789244 11.777832,28.7789244 C7.17792969,28.7789244 3.85917969,29.2472269 1.91357422,30.1705525 C0.175292969,30.9956828 0.00986328125,31.9617374 0.00048828125,32.2382563 C0.0001953125,32.2475609 0,32.2569559 0,32.2663508 L0,36.6592164 C0,37.1526324 0.428027344,37.5548088 0.961328125,37.5624874 C0.966601563,37.5625777 0.971679688,37.5625777 0.976855469,37.5625777 C1.46064453,37.5625777 1.865625,37.2358319 1.940625,36.8037542 C2.03779297,36.64675 3.29091797,34.9785126 11.7777344,34.9785126 C16.8732422,34.9785126 20.0769531,36.0534223 23.46875,37.1914769 C27.0414063,38.3902374 30.7357422,39.6297395 36.7323242,39.6297395 C47.6856445,39.6297395 49.6166016,37.7730609 49.9383789,36.9748508 C49.9790039,36.873855 49.9999023,36.7669874 49.9999023,36.6592164 L49.9999023,32.2663508 C50,31.8293046 49.6617188,31.4548613 49.1967773,31.3773529 Z M48.046875,36.3161197 C47.515332,36.6761996 45.1594727,37.8230168 36.7324219,37.8230168 C31.0791016,37.8230168 27.5488281,36.6385294 24.1347656,35.4929769 C20.7335938,34.3517605 17.2166016,33.1717899 11.777832,33.1717899 C7.20888672,33.1717899 3.90390625,33.6336786 1.95322266,34.5448088 L1.95322266,32.3920987 C2.12207031,32.1525273 3.55283203,30.5856471 11.777832,30.5856471 C16.8733398,30.5856471 20.0770508,31.6605567 23.4688477,32.7986113 C27.0415039,33.9973718 30.7358398,35.2368739 36.7324219,35.2368739 C42.9825195,35.2368739 46.2948242,34.6324349 48.046875,33.9649412 L48.046875,36.3161197 Z" id="Shape"></path>
                <path d="M11.7777344,36.4627353 C8.809375,36.4627353 6.35195313,36.6672714 4.47392578,37.0706333 C3.94765625,37.1836196 3.61660156,37.6842415 3.73457031,38.1887014 C3.83632813,38.6242649 4.23955078,38.9202572 4.68662109,38.9202572 C4.75732422,38.9202572 4.82910156,38.912862 4.90097656,38.8974165 C6.6390625,38.5241967 8.95273438,38.3348253 11.7777344,38.3348253 C12.3169922,38.3348253 12.7542969,37.9156434 12.7542969,37.3987335 C12.7542969,36.8818236 12.3170898,36.4627353 11.7777344,36.4627353 Z" id="Shape"></path>
                <path d="M36.7324219,41.1139622 C31.0791016,41.1139622 27.5489258,39.9294748 24.1348633,38.7840126 C22.0666992,38.0899601 19.928125,37.3725105 17.368457,36.926521 C16.8381836,36.8338361 16.3279297,37.1569685 16.2280273,37.6471324 C16.1282227,38.1374769 16.4769531,38.6096639 17.0070313,38.7020777 C19.4110352,39.1208761 21.3821289,39.7822269 23.4689453,40.4824223 C27.0416016,41.6811828 30.7359375,42.9206849 36.7324219,42.9206849 C37.2716797,42.9206849 37.7089844,42.5161597 37.7089844,42.0173235 C37.7089844,41.5184874 37.2716797,41.1139622 36.7324219,41.1139622 Z" id="Shape"></path>
                <path d="M4.68662109,11.4581659 C4.75732422,11.4581659 4.82910156,11.4507708 4.90097656,11.4353253 C6.6390625,11.0621055 8.95273438,10.8727341 11.7777344,10.8727341 C12.3169922,10.8727341 12.7542969,10.4535522 12.7542969,9.93664225 C12.7542969,9.41973234 12.3169922,9.00055042 11.7777344,9.00055042 C8.809375,9.00055042 6.35195313,9.20508648 4.47392578,9.60844845 C3.94765625,9.72143474 3.61660156,10.2220566 3.73457031,10.7265165 C3.83632813,11.1621737 4.23955078,11.4581659 4.68662109,11.4581659 Z" id="Shape"></path>
                <path d="M49.1967773,23.241771 C48.7802734,23.1716702 48.36875,23.358937 48.1689453,23.693271 C48.009082,23.8434097 46.2121094,25.2946597 36.7324219,25.2946597 C31.0791016,25.2946597 27.5488281,24.1101723 24.1347656,22.9646197 C20.7335938,21.8234034 17.2166016,20.6434328 11.777832,20.6434328 C7.17792969,20.6434328 3.85917969,21.111645 1.91357422,22.0350609 C0.175292969,22.8601008 0.00986328125,23.8261555 0.00048828125,24.1026744 C0.0001953125,24.111979 0,24.1214643 0,24.1307689 L0,28.5236345 C0,29.0170504 0.428027344,29.4192269 0.961328125,29.4269055 C0.966601563,29.4269958 0.971679688,29.4269958 0.976855469,29.4269958 C1.46064453,29.4269958 1.865625,29.10025 1.940625,28.6681723 C2.03779297,28.5111681 3.29091797,26.843021 11.7777344,26.843021 C16.8732422,26.843021 20.0769531,27.9179307 23.46875,29.0559853 C27.0414063,30.2547458 30.7357422,31.4942479 36.7323242,31.4942479 C47.6856445,31.4942479 49.6166016,29.6375693 49.9383789,28.8392689 C49.9790039,28.7382731 49.9999023,28.6314055 49.9999023,28.5236345 L49.9999023,24.1307689 C50,23.6937227 49.6617188,23.3193697 49.1967773,23.241771 Z M48.046875,28.1805378 C47.515332,28.540708 45.1594727,29.6875252 36.7324219,29.6875252 C31.0791016,29.6875252 27.5488281,28.5030378 24.1347656,27.3574853 C20.7335938,26.2162689 17.2166016,25.0362983 11.777832,25.0362983 C7.20888672,25.0362983 3.90390625,25.498187 1.95322266,26.4093172 L1.95322266,24.2566071 C2.12207031,24.0169454 3.55283203,22.4501555 11.777832,22.4501555 C16.8733398,22.4501555 20.0770508,23.5250651 23.4688477,24.6631197 C27.0415039,25.8618803 30.7358398,27.1013824 36.7324219,27.1013824 C42.9826172,27.1013824 46.2948242,26.4969433 48.046875,25.8294496 L48.046875,28.1805378 Z" id="Shape"></path>
                <path d="M49.1967773,14.8509895 C48.7802734,14.78125 48.36875,14.9680651 48.1689453,15.3024895 C48.009082,15.4526282 46.2121094,16.9038782 36.7324219,16.9038782 C31.0791016,16.9038782 27.5488281,15.7193908 24.1347656,14.5738382 C20.7335938,13.4326218 17.2166016,12.2526513 11.777832,12.2526513 C7.17792969,12.2526513 3.85917969,12.7208634 1.91357422,13.6442794 C0.175292969,14.4693193 0.00986328125,15.4353739 0.00048828125,15.7118929 C0.0001953125,15.7211975 0,15.7306828 0,15.7399874 L0,20.1328529 C0,20.6262689 0.428027344,21.028355 0.961328125,21.0361239 C0.966601563,21.0362143 0.971679688,21.0362143 0.976855469,21.0362143 C1.46064453,21.0362143 1.865625,20.7094685 1.940625,20.2773908 C2.03779297,20.1203866 3.29091797,18.4522395 11.7777344,18.4522395 C16.8732422,18.4522395 20.0769531,19.5271492 23.46875,20.6652038 C27.0414063,21.8639643 30.7357422,23.1034664 36.7323242,23.1034664 C47.6856445,23.1034664 49.6166016,21.2466975 49.9383789,20.4484874 C49.9790039,20.3474916 49.9999023,20.2406239 49.9999023,20.1328529 L49.9999023,15.7399874 C50,15.3029412 49.6617188,14.9285882 49.1967773,14.8509895 Z M48.046875,19.7897563 C47.515332,20.1499265 45.1594727,21.2967437 36.7324219,21.2967437 C31.0791016,21.2967437 27.5488281,20.1122563 24.1347656,18.9667038 C20.7335938,17.8254874 17.2166016,16.6455168 11.777832,16.6455168 C7.20888672,16.6455168 3.90390625,17.1074055 1.95322266,18.0185357 L1.95322266,15.8658256 C2.12207031,15.6261639 3.55283203,14.0593739 11.777832,14.0593739 C16.8733398,14.0593739 20.0770508,15.1342836 23.4688477,16.2723382 C27.0415039,17.4710987 30.7358398,18.7106008 36.7324219,18.7106008 C42.9826172,18.7106008 46.2948242,18.1061618 48.046875,17.4386681 L48.046875,19.7897563 Z" id="Shape"></path>
                <path d="M32.8125,15.0751134 C32.8624023,15.0751134 32.9111328,15.0705063 32.9589844,15.0638214 C33.0068359,15.0705063 33.0555664,15.0751134 33.1054688,15.0751134 L39.2578125,15.0751134 C39.7970703,15.0751134 40.234375,14.6705882 40.234375,14.1717521 C40.234375,13.672916 39.7970703,13.2683908 39.2578125,13.2683908 L33.7890625,13.2683908 L33.7890625,11.1003235 L39.2578125,11.1003235 C39.7970703,11.1003235 40.234375,10.6957983 40.234375,10.1969622 C40.234375,9.69812605 39.7970703,9.29360084 39.2578125,9.29360084 L33.7890625,9.29360084 L33.7890625,7.12553361 L39.2578125,7.12553361 C39.7970703,7.12553361 40.234375,6.7210084 40.234375,6.22217227 C40.234375,5.72333613 39.7970703,5.31881092 39.2578125,5.31881092 L33.7890625,5.31881092 L33.7890625,4.09927311 C33.7890625,2.87883193 34.8623047,1.88603782 36.1816406,1.88603782 C37.5009766,1.88603782 38.5742188,2.87883193 38.5742188,4.09927311 C38.5742188,4.59810924 39.0115234,5.00263445 39.5507813,5.00263445 C40.0900391,5.00263445 40.5273438,4.59810924 40.5273438,4.09927311 C40.5273438,1.88269538 38.577832,0.0793151261 36.1816406,0.0793151261 C33.7854492,0.0793151261 31.8359375,1.88269538 31.8359375,4.09927311 L31.8359375,14.1717521 C31.8359375,14.6705882 32.2732422,15.0751134 32.8125,15.0751134 Z" id="Shape"></path>
                <path d="M42.2851563,15.0751134 C42.8244141,15.0751134 43.2617188,14.6705882 43.2617188,14.1717521 L43.2617188,4.09927311 C43.2617188,2.87883193 44.3349609,1.88603782 45.6542969,1.88603782 C46.9736328,1.88603782 48.046875,2.87883193 48.046875,4.09927311 C48.046875,4.59810924 48.4841797,5.00263445 49.0234375,5.00263445 C49.5626953,5.00263445 50,4.59810924 50,4.09927311 C50,1.88269538 48.0504883,0.0793151261 45.6542969,0.0793151261 C43.2581055,0.0793151261 41.3085938,1.88269538 41.3085938,4.09927311 L41.3085938,14.1717521 C41.3085938,14.6705882 41.7458984,15.0751134 42.2851563,15.0751134 Z" id="Shape"></path>
            </g>
        </g>
    </g>
</svg>