<?xml version="1.0" encoding="UTF-8"?>
<svg width="50px" height="50px" viewBox="0 0 50 50" version="1.1" xmlns="http://www.w3.org/2000/svg" xmlns:xlink="http://www.w3.org/1999/xlink">
    <!-- Generator: Sketch 48.2 (47327) - http://www.bohemiancoding.com/sketch -->
    <title>005-machine</title>
    <desc>Created with Sketch.</desc>
    <defs></defs>
    <g id="Главная-ver.33" stroke="none" stroke-width="1" fill="none" fill-rule="evenodd" transform="translate(-233.000000, -1050.000000)">
        <g id="2-block" transform="translate(0.000000, 659.000000)" fill="#45B7FF" fill-rule="nonzero">
            <g id="005-machine" transform="translate(233.000000, 391.000000)">
                <path d="M49.0231445,48.046582 L44.7262695,48.046582 L44.7262695,15.9983398 L47.6681641,17.0550781 C47.7750977,17.0935547 47.8868164,17.1125977 47.9982422,17.1125977 C48.1442383,17.1125977 48.2898438,17.0798828 48.4238281,17.0149414 C48.6600586,16.9005859 48.840332,16.6958008 48.9240234,16.4470703 L49.9488281,13.3969727 C50.118457,12.8920898 49.8522461,12.3443359 49.3503906,12.1658203 L44.7262695,10.5213867 L44.7262695,2.92988281 C44.7262695,1.31445313 43.4120117,0.0001953125 41.796582,0.0001953125 C40.4517578,0.0001953125 39.3163086,0.911425781 38.9735352,2.14863281 L25.0253906,2.14863281 C25.0167969,2.1484375 25.0084961,2.14736328 24.9999023,2.14736328 C24.9913086,2.14736328 24.9830078,2.1484375 24.9744141,2.14863281 L11.0263672,2.14863281 C10.6834961,0.911425781 9.54814453,0.0001953125 8.20332031,0.0001953125 C6.58789063,0.0001953125 5.27363281,1.31445313 5.27363281,2.92988281 L5.27363281,10.5214844 L0.649609375,12.165918 C0.147753906,12.3444336 -0.118554687,12.8921875 0.051171875,13.3970703 L1.07597656,16.447168 C1.15957031,16.6959961 1.33984375,16.9006836 1.57617188,17.0150391 C1.71015625,17.0799805 1.85576172,17.1126953 2.00175781,17.1126953 C2.11328125,17.1126953 2.225,17.0936523 2.33183594,17.0551758 L5.27373047,15.9984375 L5.27373047,18.3824219 C5.27373047,18.9217773 5.7109375,19.3589844 6.25029297,19.3589844 C6.78964844,19.3589844 7.22685547,18.9217773 7.22685547,18.3824219 L7.22685547,15.296875 L9.17998047,14.5953125 L9.17998047,48.0466797 L7.22685547,48.0466797 L7.22685547,26.6600586 C7.22685547,26.1208008 6.78964844,25.6834961 6.25029297,25.6834961 C5.7109375,25.6834961 5.27373047,26.1208008 5.27373047,26.6600586 L5.27373047,48.046582 L0.976855469,48.046582 C0.4375,48.046582 0.00029296875,48.4838867 0.00029296875,49.0231445 C0.00029296875,49.5624023 0.4375,49.999707 0.976855469,49.999707 L49.0232422,49.999707 C49.5625977,49.999707 49.9998047,49.5624023 49.9998047,49.0231445 C49.9998047,48.4838867 49.5625,48.046582 49.0231445,48.046582 Z M40.8201172,2.92988281 C40.8201172,2.39140625 41.2582031,1.95332031 41.7966797,1.95332031 C42.3351563,1.95332031 42.7732422,2.39140625 42.7732422,2.92988281 L42.7732422,9.82695312 L40.8201172,9.13232422 L40.8201172,2.92988281 Z M34.9607422,4.10175781 L38.8669922,4.10175781 L38.8669922,8.43789062 L37.3875977,7.91181641 C37.2825195,7.87441406 37.171875,7.85537109 37.0603516,7.85537109 L34.9607422,7.85537109 L34.9607422,4.10175781 Z M25.9764648,4.10175781 L33.0076172,4.10175781 L33.0076172,7.85527344 L25.9764648,7.85527344 L25.9764648,4.10175781 Z M16.9921875,4.10175781 L24.0233398,4.10175781 L24.0233398,7.85527344 L16.9921875,7.85527344 L16.9921875,4.10175781 Z M11.1328125,4.10175781 L15.0390625,4.10175781 L15.0390625,7.85527344 L12.9394531,7.85527344 C12.8279297,7.85527344 12.7172852,7.87431641 12.612207,7.91171875 L11.1328125,8.43769531 L11.1328125,4.10175781 Z M7.22666016,2.92988281 C7.22666016,2.39140625 7.66474609,1.95332031 8.20322266,1.95332031 C8.74169922,1.95332031 9.17978516,2.39140625 9.17978516,2.92988281 L9.17978516,9.13232422 L7.22666016,9.82695312 L7.22666016,2.92988281 Z M2.60966797,14.8798828 L2.20800781,13.6845703 L13.1079102,9.80830078 L36.8918945,9.80830078 L47.7917969,13.6845703 L47.3901367,14.8799805 L36.5115234,10.9723633 C36.4056641,10.9342773 36.2939453,10.9148437 36.1814453,10.9148437 L13.8183594,10.9148437 C13.7058594,10.9148437 13.5941406,10.9342773 13.4882813,10.9723633 L2.60966797,14.8798828 Z M15.1704102,39.6482422 L11.1328125,39.6482422 L11.1328125,37.6951172 L15.1704102,37.6951172 C15.0853516,38.0064453 15.0390625,38.3336914 15.0390625,38.6716797 C15.0390625,39.009668 15.0853516,39.3369141 15.1704102,39.6482422 Z M15.0390625,20.8984375 L14.8925781,20.8984375 C13.8963867,20.8984375 13.0859375,21.7088867 13.0859375,22.7050781 L13.0859375,24.0234375 L11.1328125,24.0234375 L11.1328125,13.89375 L13.9884766,12.8679687 L15.0390625,12.8679687 L15.0390625,20.8984375 Z M16.9921875,22.8515625 L16.9921875,24.0234375 L15.0390625,24.0234375 L15.0390625,22.8515625 L16.9921875,22.8515625 Z M11.1329102,35.7419922 L11.1329102,33.7888672 L38.8669922,33.7888672 L38.8669922,35.7419922 L33.6041992,35.7419922 C33.5786133,35.7419922 33.5535156,35.7438477 33.528418,35.7458008 C32.8990234,35.2544922 32.1083008,34.9607422 31.2499023,34.9607422 L18.75,34.9607422 C17.89375,34.9607422 17.1049805,35.2530273 16.4763672,35.7419922 L11.1329102,35.7419922 Z M11.1329102,31.8358398 L11.1329102,29.8827148 L38.8669922,29.8827148 L38.8669922,31.8358398 L11.1329102,31.8358398 Z M11.1329102,27.9295898 L11.1329102,25.9764648 L14.0625977,25.9764648 L17.9688477,25.9764648 L32.03125,25.9764648 L35.9375,25.9764648 L38.8671875,25.9764648 L38.8671875,27.9295898 L11.1329102,27.9295898 Z M33.0076172,24.0234375 L33.0076172,22.8515625 L34.9607422,22.8515625 L34.9607422,24.0234375 L33.0076172,24.0234375 Z M36.9138672,24.0234375 L36.9138672,22.7050781 C36.9138672,21.7088867 36.103418,20.8984375 35.1072266,20.8984375 L34.9607422,20.8984375 L34.9607422,19.7753906 C34.9607422,19.2360352 34.5235352,18.7988281 33.9841797,18.7988281 C33.4448242,18.7988281 33.0076172,19.2360352 33.0076172,19.7753906 L33.0076172,20.8984375 L32.8611328,20.8984375 C31.8649414,20.8984375 31.0544922,21.7088867 31.0544922,22.7050781 L31.0544922,24.0234375 L18.9453125,24.0234375 L18.9453125,22.7050781 C18.9453125,21.7088867 18.1348633,20.8984375 17.1386719,20.8984375 L16.9921875,20.8984375 L16.9921875,12.8679687 L33.0076172,12.8679687 L33.0076172,13.3790039 C33.0076172,13.9183594 33.4448242,14.3555664 33.9841797,14.3555664 C34.5235352,14.3555664 34.9607422,13.9183594 34.9607422,13.3790039 L34.9607422,12.8679687 L36.0113281,12.8679687 L38.8669922,13.89375 L38.8669922,24.0234375 L36.9138672,24.0234375 Z M18.3592773,48.046582 L11.1328125,48.046582 L11.1328125,41.6013672 L16.3085938,41.6013672 C16.3601563,41.6013672 16.4104492,41.5961914 16.4598633,41.5884766 C16.9947266,42.0092773 17.6469727,42.2871094 18.3592773,42.3619141 L18.3592773,48.046582 Z M29.6874023,48.046582 L20.3125,48.046582 L20.3125,42.3826172 L29.6874023,42.3826172 L29.6874023,48.046582 Z M18.75,40.4294922 C17.7807617,40.4294922 16.9921875,39.640918 16.9921875,38.6716797 C16.9921875,37.7024414 17.7807617,36.9138672 18.75,36.9138672 L31.2499023,36.9138672 C32.2191406,36.9138672 33.0077148,37.7024414 33.0077148,38.6716797 C33.0077148,39.640918 32.2191406,40.4294922 31.2499023,40.4294922 L18.75,40.4294922 Z M38.8669922,48.046582 L31.6405273,48.046582 L31.6405273,42.3619141 C32.3455078,42.287793 32.9917969,42.0149414 33.5235352,41.6013672 L38.8669922,41.6013672 L38.8669922,48.046582 Z M38.8670898,39.6482422 L34.8294922,39.6482422 C34.9145508,39.3369141 34.9608398,39.009668 34.9608398,38.6716797 C34.9608398,38.3336914 34.9144531,38.006543 34.8294922,37.6951172 L38.8670898,37.6951172 L38.8670898,39.6482422 Z M42.7731445,48.046582 L40.8200195,48.046582 L40.8200195,14.5953125 L42.7731445,15.296875 L42.7731445,48.046582 Z" id="Shape"></path>
                <path d="M34.6021315,15.8986923 C34.4283882,15.724949 34.1873896,15.625 33.9417204,15.625 C33.6951172,15.625 33.4550526,15.724949 33.2813094,15.8986923 C33.1075662,16.0724355 33.0076172,16.3134341 33.0076172,16.5591033 C33.0076172,16.8047724 33.1075662,17.0457711 33.2813094,17.2195143 C33.4550526,17.3932575 33.6960513,17.4932065 33.9417204,17.4932065 C34.1873896,17.4932065 34.4283882,17.3932575 34.6021315,17.2195143 C34.7758747,17.0457711 34.8758237,16.8047724 34.8758237,16.5591033 C34.8758237,16.3134341 34.7758747,16.0724355 34.6021315,15.8986923 Z" id="Shape"></path>
                <path d="M6.86804942,21.8068954 C6.69430622,21.6331522 6.45330757,21.5332031 6.20763842,21.5332031 C5.96196926,21.5332031 5.72097062,21.6331522 5.54722741,21.8068954 C5.37348421,21.9806386 5.27353516,22.2216372 5.27353516,22.4673064 C5.27353516,22.7129755 5.37348421,22.9539742 5.54722741,23.1277174 C5.72097062,23.3014606 5.96196926,23.4014096 6.20763842,23.4014096 C6.45330757,23.4014096 6.69430622,23.3014606 6.86804942,23.1277174 C7.04179263,22.9539742 7.14174168,22.7129755 7.14174168,22.4673064 C7.14174168,22.2216372 7.04179263,21.9806386 6.86804942,21.8068954 Z" id="Shape"></path>
            </g>
        </g>
    </g>
</svg>