<?xml version="1.0" encoding="UTF-8"?>
<svg width="50px" height="50px" viewBox="0 0 50 50" version="1.1" xmlns="http://www.w3.org/2000/svg" xmlns:xlink="http://www.w3.org/1999/xlink">
    <!-- Generator: Sketch 48.2 (47327) - http://www.bohemiancoding.com/sketch -->
    <title>002-blocks</title>
    <desc>Created with Sketch.</desc>
    <defs></defs>
    <g id="Главная-ver.33" stroke="none" stroke-width="1" fill="none" fill-rule="evenodd" transform="translate(-836.000000, -1050.000000)">
        <g id="2-block" transform="translate(0.000000, 659.000000)" fill="#45B7FF" fill-rule="nonzero">
            <g id="002-blocks" transform="translate(836.000000, 391.000000)">
                <path d="M46.8425926,24.0231445 L37.7049708,24.0231445 C37.8394737,23.678125 37.9143275,23.3032227 37.9143275,22.9109375 L37.9143275,3.06582031 C37.9143275,1.37529297 36.5416179,0 34.8544834,0 L15.0479532,0 C13.3608187,0 11.9881092,1.37529297 11.9881092,3.06582031 L11.9881092,22.9110352 C11.9881092,23.3032227 12.062768,23.678125 12.1973684,24.0232422 L3.05984405,24.0232422 C1.37261209,24.0231445 0,25.3985352 0,27.0890625 L0,46.9341797 C0,48.6246094 1.37261209,50 3.05984405,50 L22.8663743,50 C23.6714425,50 24.404386,49.6864258 24.9512671,49.1751953 C25.4981481,49.6863281 26.2311891,50 27.0362573,50 L46.8426901,50 C48.529922,50 49.9026316,48.624707 49.9026316,46.9341797 L49.9026316,27.0890625 C49.9025341,25.3985352 48.529922,24.0231445 46.8425926,24.0231445 Z M23.9762183,46.9341797 C23.9762183,47.5473633 23.4782651,48.0462891 22.8662768,48.0462891 L3.05984405,48.0462891 C2.44785575,48.0462891 1.94990253,47.5473633 1.94990253,46.9341797 L1.94990253,27.0891602 C1.94990253,26.4758789 2.44785575,25.9769531 3.05984405,25.9769531 L22.8663743,25.9769531 C23.4783626,25.9769531 23.9763158,26.4758789 23.9763158,27.0891602 L23.9763158,46.9341797 L23.9762183,46.9341797 Z M15.0479532,24.0230469 C14.4359649,24.0230469 13.9380117,23.5241211 13.9380117,22.9109375 L13.9380117,3.06582031 C13.9380117,2.45263672 14.4359649,1.95371094 15.0479532,1.95371094 L34.854386,1.95371094 C35.4663743,1.95371094 35.9643275,2.45263672 35.9643275,3.06582031 L35.9643275,22.9110352 C35.9643275,23.5242188 35.4663743,24.0231445 34.854386,24.0231445 L15.0479532,24.0231445 L15.0479532,24.0230469 Z M47.9526316,46.9341797 C47.9526316,47.5473633 47.4546784,48.0462891 46.8425926,48.0462891 L27.0362573,48.0462891 C26.4241715,48.0462891 25.9262183,47.5473633 25.9262183,46.9341797 L25.9262183,27.0891602 C25.9262183,26.4758789 26.4241715,25.9769531 27.0362573,25.9769531 L46.8426901,25.9769531 C47.4547758,25.9769531 47.952729,26.4758789 47.952729,27.0891602 L47.952729,46.9341797 L47.9526316,46.9341797 Z" id="Shape"></path>
                <path d="M14.6935503,44.6274414 L14.6715484,44.6274414 C14.1564624,44.6274414 13.7389864,45.0457328 13.7389864,45.5618249 C13.7389864,46.0779169 14.1564624,46.4962084 14.6715484,46.4962084 L14.6935503,46.4962084 C15.2086363,46.4962084 15.6261124,46.0779169 15.6261124,45.5618249 C15.6261124,45.0457328 15.2086363,44.6274414 14.6935503,44.6274414 Z" id="Shape"></path>
                <path d="M21.5387914,27.4421875 L4.38732943,27.4421875 C3.84883041,27.4421875 3.41237817,27.8794922 3.41237817,28.419043 L3.41237817,45.6041016 C3.41237817,46.1436523 3.84883041,46.580957 4.38732943,46.580957 L9.18196881,46.580957 C9.72046784,46.580957 10.1569201,46.1436523 10.1569201,45.6041016 C10.1569201,45.0645508 9.72046784,44.6272461 9.18196881,44.6272461 L5.3622807,44.6272461 L5.3622807,29.3958984 L20.5638402,29.3958984 L20.5638402,44.6272461 L17.5381092,44.6272461 C16.9996101,44.6272461 16.5631579,45.0645508 16.5631579,45.6041016 C16.5631579,46.1436523 16.9996101,46.580957 17.5381092,46.580957 L21.5387914,46.580957 C22.0772904,46.580957 22.5137427,46.1436523 22.5137427,45.6041016 L22.5137427,28.419043 C22.5137427,27.8794922 22.0772904,27.4421875 21.5387914,27.4421875 Z" id="Shape"></path>
                <path d="M45.5152047,27.4422852 L41.514425,27.4422852 C40.9759259,27.4422852 40.5394737,27.8795898 40.5394737,28.4191406 C40.5394737,28.9586914 40.9759259,29.3959961 41.514425,29.3959961 L44.5402534,29.3959961 L44.5402534,44.6272461 L29.3385965,44.6272461 L29.3385965,29.3959961 L33.1583821,29.3959961 C33.6968811,29.3959961 34.1333333,28.9586914 34.1333333,28.4191406 C34.1333333,27.8795898 33.6968811,27.4422852 33.1583821,27.4422852 L28.3636452,27.4422852 C27.8251462,27.4422852 27.388694,27.8795898 27.388694,28.4191406 L27.388694,45.6041016 C27.388694,46.1436523 27.8251462,46.580957 28.3636452,46.580957 L45.5152047,46.580957 C46.0537037,46.580957 46.4901559,46.1436523 46.4901559,45.6041016 L46.4901559,28.4191406 C46.4901559,27.8795898 46.0537037,27.4422852 45.5152047,27.4422852 Z" id="Shape"></path>
                <path d="M38.6698661,27.4420898 L38.6478642,27.4420898 C38.1327782,27.4420898 37.7153021,27.8603813 37.7153021,28.3764733 C37.7153021,28.8925654 38.1327782,29.3108568 38.6478642,29.3108568 L38.6698661,29.3108568 C39.1849521,29.3108568 39.6024282,28.8925654 39.6024282,28.3764733 C39.6024282,27.8603813 39.1849521,27.4420898 38.6698661,27.4420898 Z" id="Shape"></path>
                <path d="M16.3330494,10.2342773 C15.8179634,10.2342773 15.4004873,10.6525688 15.4004873,11.1686608 L15.4004873,11.1907057 C15.4004873,11.7067977 15.8179634,12.1250892 16.3330494,12.1250892 C16.8481354,12.1250892 17.2656115,11.7067977 17.2656115,11.1907057 L17.2656115,11.1686608 C17.2656115,10.6525688 16.8480422,10.2342773 16.3330494,10.2342773 Z" id="Shape"></path>
                <path d="M33.5270955,3.41904297 L16.3755361,3.41904297 C15.837037,3.41904297 15.4005848,3.85634766 15.4005848,4.39589844 L15.4005848,8.40449219 C15.4005848,8.94404297 15.837037,9.38134766 16.3755361,9.38134766 C16.9140351,9.38134766 17.3504873,8.94404297 17.3504873,8.40449219 L17.3504873,5.37275391 L32.5521442,5.37275391 L32.5521442,20.6040039 L17.3505848,20.6040039 L17.3505848,16.7768555 C17.3505848,16.2373047 16.9141326,15.8 16.3756335,15.8 C15.8371345,15.8 15.4006823,16.2373047 15.4006823,16.7768555 L15.4006823,21.5808594 C15.4006823,22.1204102 15.8371345,22.5577148 16.3756335,22.5577148 L33.527193,22.5577148 C34.065692,22.5577148 34.5021442,22.1204102 34.5021442,21.5808594 L34.5021442,4.39589844 C34.5021442,3.85634766 34.0655945,3.41904297 33.5270955,3.41904297 Z" id="Shape"></path>
                <path d="M12.9630604,32.1273438 C10.2750487,32.1273438 8.08820663,34.318457 8.08820663,37.0117188 C8.08820663,39.7049805 10.2750487,41.8960938 12.9630604,41.8960938 C15.6510721,41.8960938 17.8379142,39.7049805 17.8379142,37.0117188 C17.8379142,34.318457 15.6509747,32.1273438 12.9630604,32.1273438 Z M12.9630604,39.9422852 C11.3502924,39.9422852 10.0382066,38.6276367 10.0382066,37.0117188 C10.0382066,35.3958008 11.3502924,34.0811523 12.9630604,34.0811523 C14.5758285,34.0811523 15.8879142,35.3958008 15.8879142,37.0117188 C15.8879142,38.6276367 14.5758285,39.9422852 12.9630604,39.9422852 Z" id="Shape"></path>
                <path d="M41.638694,39.8428711 L37.7838207,33.1530273 C37.6096491,32.8507813 37.2878168,32.6645508 36.9394737,32.6645508 C36.5911306,32.6645508 36.2692982,32.8507813 36.0951267,33.1530273 L32.2112086,39.893457 C32.0369396,40.1958008 32.0369396,40.5681641 32.2112086,40.8703125 C32.3853801,41.1725586 32.7072125,41.3587891 33.0555556,41.3587891 L40.8234893,41.3587891 C40.8241715,41.3587891 40.8247563,41.3587891 40.8254386,41.3587891 C41.3639376,41.3587891 41.8003899,40.9214844 41.8003899,40.3819336 C41.8002924,40.1826172 41.7408382,39.9973633 41.638694,39.8428711 Z M34.744152,39.4048828 L36.9393762,35.5951172 L39.1346979,39.4048828 L34.744152,39.4048828 Z" id="Shape"></path>
                <path d="M29.9789474,11.7641602 C29.8865497,11.4791016 29.6684211,11.2522461 29.3875244,11.1490234 L27.174269,10.3351563 L25.7178363,8.47753906 C25.5330409,8.24169922 25.2502924,8.10410156 24.9511696,8.10410156 C24.6519493,8.10410156 24.3692982,8.24169922 24.1845029,8.47744141 L22.7280702,10.3350586 L20.5147173,11.1489258 C20.2338207,11.2521484 20.0157895,11.4790039 19.9233918,11.7640625 C19.8309942,12.0492188 19.874269,12.3610352 20.0409357,12.6100586 L21.3540936,14.571875 L21.4425926,16.9326172 C21.4538012,17.2322266 21.6017544,17.5100586 21.8437622,17.6862305 C22.08577,17.8624023 22.3952242,17.9175781 22.6831384,17.8356445 L24.9511696,17.1905273 L27.2191033,17.8356445 C27.3066277,17.8605469 27.3962963,17.8727539 27.4852827,17.8727539 C27.6889864,17.8727539 27.889961,17.8087891 28.0583821,17.6861328 C28.3004873,17.5098633 28.4483431,17.2321289 28.4595517,16.9325195 L28.5480507,14.571875 L29.8612086,12.6100586 C30.0280702,12.3611328 30.071345,12.0493164 29.9789474,11.7641602 Z M26.7746589,13.7141602 C26.6738791,13.8647461 26.6168616,14.0404297 26.610039,14.221582 L26.5576998,15.6166016 L25.2174464,15.2353516 C25.0433723,15.1858398 24.8590643,15.1858398 24.6848928,15.2353516 L23.3445419,15.6166016 L23.2922027,14.221582 C23.2853801,14.040332 23.22846,13.8647461 23.1275828,13.7141602 L22.3516569,12.5546875 L23.6597466,12.0736328 C23.8295322,12.0112305 23.9787524,11.9025391 24.0904483,11.7600586 L24.9512671,10.6623047 L25.8119883,11.7600586 C25.9237817,11.9026367 26.0729045,12.0112305 26.2426901,12.0737305 L27.5506823,12.5547852 L26.7746589,13.7141602 Z" id="Shape"></path>
            </g>
        </g>
    </g>
</svg>