<?xml version="1.0" encoding="UTF-8"?>
<svg width="50px" height="50px" viewBox="0 0 50 50" version="1.1" xmlns="http://www.w3.org/2000/svg" xmlns:xlink="http://www.w3.org/1999/xlink">
    <!-- Generator: Sketch 48.2 (47327) - http://www.bohemiancoding.com/sketch -->
    <title>001-spa</title>
    <desc>Created with Sketch.</desc>
    <defs></defs>
    <g id="Главная-ver.33" stroke="none" stroke-width="1" fill="none" fill-rule="evenodd" transform="translate(-1009.000000, -1050.000000)">
        <g id="2-block" transform="translate(0.000000, 659.000000)" fill="#45B7FF" fill-rule="nonzero">
            <g id="001-spa" transform="translate(1009.000000, 391.000000)">
                <path d="M7.85946602,39.395933 C7.70837379,39.7714115 7.34308252,40.0003589 6.95667476,40.0003589 C6.83762136,40.0003589 6.71650485,39.9785885 6.59915049,39.9327751 C2.88385922,38.4805024 0.629126214,36.6160287 0.0788834951,34.5409091 C-0.0566747573,34.0296651 0.254004854,33.5066986 0.772694175,33.3730861 C1.29162621,33.2397129 1.82196602,33.5455742 1.95752427,34.0570574 C2.33944175,35.4977273 4.24211165,36.9526316 7.31492718,38.1535885 C7.81334951,38.348445 8.05716019,38.9045455 7.85946602,39.395933 Z M11.1591019,29.3782297 C11.3418689,29.5316986 11.5656553,29.6066986 11.7883495,29.6066986 C12.0628641,29.6066986 12.335801,29.4924641 12.5277913,29.2703349 C12.8756068,28.8680622 12.8265777,28.2639952 12.4184466,27.9212919 C11.9367718,27.5167464 11.4656553,27.0881579 11.0183252,26.6471292 C6.75182039,22.441866 4.51699029,17.0962919 5.19441748,12.8348086 C7.01480583,12.5535885 9.02924757,12.7813397 11.0711165,13.45311 C11.1575243,13.4978469 11.2514563,13.5301435 11.35,13.547488 C14.0677184,14.4942584 16.8190534,16.2210526 19.2076456,18.5752392 C19.8088592,19.167823 20.3815534,19.7960526 20.9095874,20.4424641 C21.2458738,20.854067 21.8570388,20.9188995 22.2747573,20.5876794 C22.6923544,20.2562201 22.7582524,19.6537081 22.421966,19.2421053 C21.8503641,18.5424641 21.2309466,17.862799 20.5805825,17.2217703 C18.1265777,14.8029904 15.296966,12.9913876 12.4507282,11.9211722 C12.3811893,10.1904306 12.6793689,8.6104067 13.3087379,7.36507177 C14.9123786,7.70861244 16.5706311,8.66973684 18.0621359,10.1260766 C17.8541262,10.942823 17.6881068,11.7875598 17.5675971,12.6539474 C17.4947816,13.177512 17.8662621,13.6601675 18.3975728,13.7320574 C18.9290049,13.8039474 19.418568,13.4375598 19.4913835,12.9139952 C20.1438107,8.225 22.2097087,4.2888756 25.0668689,2.23253589 C27.9235437,4.28839713 29.989199,8.22368421 30.6419903,12.9120813 C30.7149272,13.4356459 31.2044903,13.8021531 31.7359223,13.7300239 C32.2671117,13.658134 32.6385922,13.1754785 32.5657767,12.6517943 C32.445267,11.786244 32.2794903,10.9423445 32.0716019,10.1264354 C33.5628641,8.67045455 35.2228155,7.70873206 36.8252427,7.36519139 C37.4544903,8.61064593 37.7525485,10.1905502 37.6828883,11.9211722 C34.8370146,12.9915072 32.0067961,14.8033493 29.5531553,17.22189 C28.9026699,17.8630383 28.2832524,18.542823 27.7121359,19.2422249 C27.3758495,19.6538278 27.4418689,20.2563397 27.8595874,20.5876794 C28.2771845,20.9191388 28.8885922,20.854067 29.2246359,20.4423445 C29.7524272,19.7962919 30.3247573,19.1680622 30.9262136,18.5752392 C33.3144417,16.2210526 36.0652913,14.4944976 38.7826456,13.5477273 C38.8817961,13.5302632 38.976335,13.4978469 39.0633495,13.4526316 C41.1044903,12.7813397 43.1194175,12.5534689 44.9393204,12.834689 C45.6167476,17.0962919 43.3819175,22.441866 39.115534,26.6472488 C38.6679612,27.0885167 38.196966,27.5169856 37.715534,27.9206938 C37.3071602,28.2631579 37.2578883,28.8672249 37.6053398,29.2696172 C37.9529126,29.6720096 38.5656553,29.7206938 38.9739078,29.3782297 C39.4947816,28.9412679 40.0043689,28.4777512 40.4885922,28.0002392 C45.4200243,23.1395933 47.8639563,16.7825359 46.7151699,11.8050239 C46.6322816,11.4460526 46.3480583,11.1657895 45.9838592,11.0842105 C44.0211165,10.6440191 41.8474515,10.7388756 39.6333738,11.3046651 C39.6122573,9.19688995 39.1033981,7.27870813 38.1588592,5.80155502 C37.9597087,5.49019139 37.5972087,5.31925837 37.2260922,5.3611244 C35.2756068,5.58313397 33.2591019,6.54090909 31.4457524,8.08983254 C30.1917476,4.63624402 28.1372573,1.85023923 25.5841019,0.266507177 C25.2679612,0.0704545455 24.8658981,0.0705741627 24.5498786,0.266507177 C21.9966019,1.85035885 19.942233,4.63624402 18.6882282,8.08947368 C16.8751214,6.54055024 14.8605583,5.58349282 12.9081311,5.3611244 C12.5373786,5.31937799 12.1746359,5.49007177 11.9754854,5.80143541 C11.0305825,7.27870813 10.5216019,9.19677033 10.5004854,11.3049043 C8.28652913,10.7392344 6.11237864,10.644378 4.15,11.0844498 C3.78592233,11.1661483 3.50157767,11.4462919 3.41868932,11.8052632 C2.26978155,16.7825359 4.71395631,23.1395933 9.64538835,28.0003589 C10.1290049,28.4771531 10.6383495,28.9406699 11.1591019,29.3782297 Z M10.6991505,36.8617225 C10.8760922,36.362799 10.6093447,35.8171053 10.1031553,35.6425837 C7.17378641,34.6330144 5.42487864,33.357177 5.42487864,32.2296651 C5.42487864,31.5011962 6.18677184,30.6779904 7.57026699,29.9114833 C8.03774272,29.652512 8.20364078,29.0691388 7.94089806,28.6083732 C7.67815534,28.147488 7.08616505,27.9838517 6.61881068,28.2430622 C4.5381068,29.3958134 3.48313107,30.7370813 3.48313107,32.2295455 C3.48313107,34.2960526 5.55072816,36.1009569 9.46225728,37.4491627 C9.56832524,37.4857656 9.67645631,37.5029904 9.78276699,37.5029904 C10.1838592,37.50311 10.5592233,37.2561005 10.6991505,36.8617225 Z M39.8354369,35.7089713 C39.3276699,35.8789474 39.0558252,36.4223684 39.2282767,36.9227273 C39.365534,37.3211722 39.7430825,37.5722488 40.1474515,37.5722488 C40.2510922,37.5722488 40.3563107,37.5557416 40.4597087,37.5211722 C44.5099515,36.1654306 46.6508495,34.3355263 46.6508495,32.2295455 C46.6508495,30.7907895 45.6680825,29.4905502 43.7300971,28.3648325 C43.2677184,28.0965311 42.6728155,28.2482057 42.4007282,28.7034689 C42.1285194,29.1588517 42.2822816,29.7454545 42.7442961,30.013756 C44.0112864,30.7495215 44.7091019,31.5364833 44.7091019,32.2294258 C44.7091019,33.3694976 42.8415049,34.7027512 39.8354369,35.7089713 Z M34.6956311,42.7033493 C34.6956311,43.6727273 33.8955097,44.4614833 32.9121359,44.4614833 C32.3759709,44.4614833 31.9412621,44.8899522 31.9412621,45.4184211 C31.9412621,45.94689 32.3759709,46.3753589 32.9121359,46.3753589 C34.9662621,46.3753589 36.6373786,44.7279904 36.6373786,42.70311 C36.6373786,42.1746411 36.2026699,41.7462919 35.6665049,41.7462919 C35.1303398,41.7462919 34.6956311,42.1748804 34.6956311,42.7033493 Z M49.260801,33.3730861 C48.7424757,33.2399522 48.2115291,33.5455742 48.0759709,34.0570574 C47.6940534,35.4978469 45.7915049,36.9526316 42.718568,38.1535885 C42.220267,38.3483254 41.976335,38.9045455 42.1740291,39.395933 C42.3251214,39.7715311 42.6904126,40.0003589 43.076699,40.0003589 C43.1957524,40.0003589 43.3168689,39.9785885 43.4343447,39.9327751 C47.1497573,38.480622 49.4043689,36.6161483 49.9546117,34.5410287 C50.0902913,34.0295455 49.7794903,33.5066986 49.260801,33.3730861 Z M32.0086165,33.788756 C32.0086165,34.309689 31.5786408,34.7334928 31.0502427,34.7334928 C30.5140777,34.7334928 30.0793689,35.1619617 30.0793689,35.6904306 C30.0793689,36.2188995 30.5140777,36.6473684 31.0502427,36.6473684 C32.6493932,36.6473684 33.9503641,35.3648325 33.9503641,33.7885167 C33.9503641,33.2600478 33.5156553,32.8316986 32.9794903,32.8316986 C32.4433252,32.8316986 32.0086165,33.2602871 32.0086165,33.788756 Z M29.234466,27.6767943 L29.4877427,27.6767943 C30.0239078,27.6767943 30.4586165,27.2483254 30.4586165,26.7198565 C30.4586165,26.1913876 30.0239078,25.7629187 29.4877427,25.7629187 L29.234466,25.7629187 C28.698301,25.7629187 28.2635922,26.1913876 28.2635922,26.7198565 C28.2635922,27.2483254 28.698301,27.6767943 29.234466,27.6767943 Z M39.2627427,38.6486842 C40.1525485,39.8654306 40.6228155,41.2994019 40.6228155,42.7954545 C40.6228155,46.7204545 37.3833738,49.9135167 33.401335,49.9135167 L16.7326456,49.9135167 C12.7507282,49.9135167 9.51116505,46.7205742 9.51116505,42.7958134 C9.51116505,40.1911483 10.9743932,37.8088517 13.2466019,36.566866 C12.9290049,35.858134 12.7524272,35.0746411 12.7524272,34.251555 C12.7524272,31.7478469 14.3843447,29.6130383 16.6548544,28.8260766 C16.1531553,28.1106459 15.8589806,27.2434211 15.8589806,26.3098086 C15.8589806,23.8632775 17.8781553,21.8732057 20.3599515,21.8732057 L29.7741505,21.8732057 C32.2559466,21.8732057 34.2751214,23.8632775 34.2751214,26.3094498 C34.2751214,28.7559809 32.2559466,30.7461722 29.7741505,30.7461722 L20.3599515,30.7461722 C19.7555825,30.7461722 19.1787621,30.6282297 18.651699,30.4143541 C18.6296117,30.4159091 18.6071602,30.4166268 18.5847087,30.4166268 C16.4394417,30.4166268 14.6940534,32.1369617 14.6940534,34.2516746 C14.6940534,35.042823 14.9384709,35.7789474 15.3565534,36.390311 C15.3896845,36.4294258 15.4197816,36.4715311 15.4466019,36.5163876 C16.1552184,37.467823 17.2979369,38.0866029 18.5845874,38.0866029 L31.5492718,38.0866029 C33.6945388,38.0866029 35.4398058,36.3662679 35.4398058,34.2517943 C35.4398058,33.112799 34.925,32.0376794 34.0271845,31.3022727 C33.6149272,30.9644737 33.5584951,30.3611244 33.9012136,29.9545455 C34.243932,29.5479665 34.856068,29.4927033 35.268568,29.8303828 C36.6112864,30.930622 37.3815534,32.5421053 37.3815534,34.2516746 C37.3815534,37.4215311 34.7651699,40.0004785 31.5492718,40.0004785 L18.5848301,40.0004785 C16.9037621,40.0004785 15.3866505,39.2958134 14.3213592,38.1705742 C12.5817961,39.0572967 11.453034,40.8411483 11.453034,42.7958134 C11.453034,45.6655502 13.8214806,48 16.732767,48 L33.4015777,48 C36.3127427,48 38.6813107,45.6655502 38.6813107,42.7961722 C38.6813107,41.7039474 38.3377427,40.6569378 37.6876214,39.7681818 C37.3741505,39.3394737 37.4726942,38.7413876 37.9076456,38.4322967 C38.3425971,38.1232057 38.9489078,38.2198565 39.2627427,38.6486842 Z M17.8007282,26.3092105 C17.8007282,27.7004785 18.9487864,28.8320574 20.3599515,28.8320574 L29.7741505,28.8320574 C31.1853155,28.8320574 32.3333738,27.7004785 32.3333738,26.3095694 C32.3333738,24.9184211 31.1853155,23.7868421 29.7741505,23.7868421 L20.3599515,23.7868421 C18.9489078,23.7869617 17.8007282,24.9184211 17.8007282,26.3092105 Z" id="XMLID_1442_"></path>
            </g>
        </g>
    </g>
</svg>