<?xml version="1.0" encoding="UTF-8"?>
<svg width="50px" height="50px" viewBox="0 0 50 50" version="1.1" xmlns="http://www.w3.org/2000/svg" xmlns:xlink="http://www.w3.org/1999/xlink">
    <!-- Generator: Sketch 48.2 (47327) - http://www.bohemiancoding.com/sketch -->
    <title>006-boxing-gloves</title>
    <desc>Created with Sketch.</desc>
    <defs></defs>
    <g id="Главная-ver.33" stroke="none" stroke-width="1" fill="none" fill-rule="evenodd" transform="translate(-616.000000, -1050.000000)">
        <g id="2-block" transform="translate(0.000000, 659.000000)" fill="#45B7FF" fill-rule="nonzero">
            <g id="006-boxing-gloves" transform="translate(616.000000, 391.000000)">
                <path d="M5.43514351,14.8244735 C5.26149372,14.6507303 5.02049507,14.5507812 4.77482592,14.5507812 C4.52915676,14.5507812 4.28815812,14.6506369 4.11441491,14.8244735 C3.94067171,14.9983101 3.84072266,15.2392154 3.84072266,15.4848845 C3.84072266,15.7305537 3.94057829,15.9715523 4.11441491,16.1452021 C4.28815812,16.3189453 4.52915676,16.4189878 4.77482592,16.4189878 C5.02049507,16.4189878 5.26149372,16.3190387 5.43514351,16.1452021 C5.60888672,15.9715523 5.70892918,15.7305537 5.70892918,15.4848845 C5.70892918,15.2392154 5.60888672,14.9982167 5.43514351,14.8244735 Z" id="Shape"></path>
                <path d="M13.7449219,3.80859375 L9.97705078,3.80859375 C6.59345703,3.80859375 3.84082031,6.56132813 3.84082031,9.94472656 L3.84082031,12.0768555 C3.84082031,12.6161133 4.27802734,13.053418 4.81738281,13.053418 C5.35664062,13.053418 5.79394531,12.6161133 5.79394531,12.0768555 L5.79394531,9.94472656 C5.79394531,7.63818359 7.67041016,5.76171875 9.97705078,5.76171875 L13.7449219,5.76171875 C14.2841797,5.76171875 14.7214844,5.32441406 14.7214844,4.78515625 C14.7214844,4.24589844 14.2841797,3.80859375 13.7449219,3.80859375 Z" id="Shape"></path>
                <path d="M41.0316406,5.2734375 L30.8763672,5.2734375 C30.4334961,4.27978516 29.8067383,3.36728516 29.009082,2.58095703 C27.3208984,0.916601563 25.0705078,0 22.6725586,0 L8.96835938,0 C4.02333984,0 9.765625e-05,4.02314453 9.765625e-05,8.96826172 L9.765625e-05,22.4912109 C9.765625e-05,26.3708008 1.45371094,30.0731445 4.09316406,32.9161133 L5.31748047,34.2350586 C5.16425781,34.5762695 5.07822266,34.9539063 5.07822266,35.3515625 L5.07822266,41.9923828 C5.07822266,43.4999023 6.30478516,44.7265625 7.8125,44.7265625 L23.4374023,44.7265625 L23.4374023,47.2657227 C23.4374023,48.7733398 24.6640625,50 26.1716797,50 L42.1875,50 C43.6951172,50 44.9217773,48.7733398 44.9217773,47.2657227 L44.9217773,40.6249023 C44.9217773,40.2272461 44.8357422,39.8496094 44.6824219,39.5083984 L45.9067383,38.1894531 C48.5462891,35.3464844 49.9999023,31.6441406 49.9999023,27.7645508 L49.9999023,14.2416992 C49.9999023,9.29658203 45.9766602,5.2734375 41.0316406,5.2734375 Z M5.52460938,31.587207 C3.22158203,29.106543 1.95322266,25.8762695 1.95322266,22.4912109 L1.95322266,8.96826172 C1.95322266,5.10009766 5.10019531,1.953125 8.96835938,1.953125 L22.6724609,1.953125 C26.540625,1.953125 29.6875977,5.06347656 29.6875977,8.88642578 L29.6875977,11.5234375 L29.687207,11.5234375 C26.8873047,11.5234375 24.6094727,13.8012695 24.6094727,16.6011719 L24.6094727,23.3938477 C24.6094727,23.9331055 25.0467773,24.3704102 25.5860352,24.3704102 C26.125293,24.3704102 26.5625977,23.9331055 26.5625977,23.3938477 L26.5625977,16.6011719 C26.5625977,14.8782227 27.9643555,13.4765625 29.687207,13.4765625 C31.4100586,13.4765625 32.8118164,14.8783203 32.8118164,16.6011719 L32.8118164,20.2967773 C32.8118164,23.775293 31.4572266,27.0457031 28.9974609,29.5053711 L25.8488281,32.6540039 C25.7651367,32.6306641 25.6771484,32.6171875 25.5860352,32.6171875 L23.8283203,32.6171875 L7.8125,32.6171875 L6.48076172,32.6171875 L5.52460938,31.587207 Z M24.6094727,41.9922852 C24.6094727,42.4230469 24.259082,42.7734375 23.8283203,42.7734375 L7.8125,42.7734375 C7.38173828,42.7734375 7.03134766,42.4230469 7.03134766,41.9922852 L7.03134766,40.8203125 L15.8204102,40.8203125 C16.359668,40.8203125 16.7969727,40.3830078 16.7969727,39.84375 C16.7969727,39.3044922 16.359668,38.8671875 15.8204102,38.8671875 L7.03134766,38.8671875 L7.03134766,35.3514648 C7.03134766,34.9207031 7.38173828,34.5703125 7.81240234,34.5703125 L23.8283203,34.5703125 C24.259082,34.5703125 24.6094727,34.9207031 24.6094727,35.3514648 L24.6094727,41.9922852 Z M42.9686523,44.140625 L37.4999023,44.140625 C36.9606445,44.140625 36.5233398,44.5779297 36.5233398,45.1171875 C36.5233398,45.6564453 36.9606445,46.09375 37.4999023,46.09375 L42.9686523,46.09375 L42.9686523,47.2657227 C42.9686523,47.6964844 42.6182617,48.046875 42.1875,48.046875 L26.1716797,48.046875 C25.740918,48.046875 25.3905273,47.6964844 25.3905273,47.2657227 L25.3905273,44.2344727 C26.0984375,43.7398437 26.5626953,42.9194336 26.5626953,41.9922852 L26.5626953,39.84375 L34.9608398,39.84375 L42.1875,39.84375 C42.6182617,39.84375 42.9686523,40.1941406 42.9686523,40.6249023 L42.9686523,44.140625 Z M48.046875,27.7646484 C48.0467773,31.149707 46.7785156,34.3799805 44.4753906,36.8607422 L43.5192383,37.890625 L42.1875,37.890625 L34.9608398,37.890625 L26.5626953,37.890625 L26.5626953,35.3514648 C26.5626953,35.1505859 26.540332,34.9548828 26.4990234,34.7662109 L30.3788086,30.8864258 C33.2074219,28.0578125 34.7651367,24.2969727 34.7651367,20.2967773 L34.7651367,16.6011719 C34.7651367,14.4932617 33.4738281,12.6816406 31.640918,11.9147461 L31.640918,8.88642578 C31.640918,8.32265625 31.587207,7.76787109 31.4857422,7.2265625 L41.0317383,7.2265625 C44.8999023,7.2265625 48.046875,10.3735352 48.046875,14.2416992 L48.046875,27.7646484 Z" id="Shape"></path>
                <path d="M34.1138544,44.4143173 C33.9401112,44.2404806 33.6991126,44.140625 33.4535369,44.140625 C33.2078677,44.140625 32.9668691,44.2404806 32.7931258,44.4143173 C32.6193826,44.5881539 32.5194336,44.8290591 32.5194336,45.0747283 C32.5194336,45.3203974 32.6192892,45.5613961 32.7931258,45.7350459 C32.9668691,45.9087891 33.2078677,46.0088315 33.4535369,46.0088315 C33.699206,46.0088315 33.9402047,45.9088825 34.1138544,45.7350459 C34.2875977,45.5613961 34.3876401,45.3203974 34.3876401,45.0747283 C34.3876401,44.8290591 34.2876911,44.5880605 34.1138544,44.4143173 Z" id="Shape"></path>
                <path d="M40.0229492,9.08203125 L37.4998047,9.08203125 C36.9605469,9.08203125 36.5232422,9.51933594 36.5232422,10.0585938 C36.5232422,10.5978516 36.9605469,11.0351563 37.4998047,11.0351563 L40.0229492,11.0351563 C42.3294922,11.0351563 44.2060547,12.9116211 44.2060547,15.2181641 L44.2060547,20.8007813 C44.2060547,21.3400391 44.6433594,21.7773438 45.1826172,21.7773438 C45.721875,21.7773438 46.1591797,21.3400391 46.1591797,20.8007813 L46.1591797,15.2181641 C46.1591797,11.8347656 43.406543,9.08203125 40.0229492,9.08203125 Z" id="Shape"></path>
            </g>
        </g>
    </g>
</svg>