<?xml version="1.0" encoding="UTF-8"?>
<svg width="19px" height="19px" viewBox="0 0 19 19" version="1.1" xmlns="http://www.w3.org/2000/svg" xmlns:xlink="http://www.w3.org/1999/xlink">
    <!-- Generator: Sketch 48.2 (47327) - http://www.bohemiancoding.com/sketch -->
    <title>cross-remove-sign</title>
    <desc>Created with Sketch.</desc>
    <defs></defs>
    <g id="Главная-Tablet-3-Copy-2" stroke="none" stroke-width="1" fill="none" fill-rule="evenodd" transform="translate(-30.000000, -14.000000)">
        <g id="cross-remove-sign" transform="translate(30.000000, 14.000000)" fill="#45B7FF" fill-rule="nonzero">
            <path d="M12.4407792,9.50009902 L18.8837967,3.05698413 C19.0384704,2.90231293 19.0384704,2.65159112 18.8837967,2.49691992 L16.5034866,0.116052909 C16.4292195,0.0417869688 16.3282163,0 16.2234502,0 C16.118486,0 16.0176808,0.0417869688 15.9434137,0.116052909 L9.5,6.55936585 L3.05658632,0.116052909 C2.90805212,-0.032478971 2.64504756,-0.032478971 2.49651336,0.116052909 L0.116005212,2.49691992 C-0.0386684039,2.65159112 -0.0386684039,2.90231293 0.116005212,3.05698413 L6.55922085,9.50009902 L0.116005212,15.9432139 C-0.0386684039,16.0978851 -0.0386684039,16.3486069 0.116005212,16.5032781 L2.49651336,18.8839471 C2.57078046,18.958213 2.67158567,19 2.77654984,19 C2.88151401,19 2.98231922,18.958213 3.05658632,18.8839471 L9.5,12.4406342 L15.9434137,18.8839471 C16.0176808,18.958213 16.118486,19 16.2234502,19 C16.3282163,19 16.4292195,18.958213 16.5034866,18.8839471 L18.8839948,16.5032781 C19.0386684,16.3486069 19.0386684,16.0976871 18.8839948,15.9432139 L12.4407792,9.50009902 Z" id="Shape"></path>
        </g>
    </g>
</svg>