<?xml version="1.0" encoding="UTF-8"?>
<svg width="11px" height="11px" viewBox="0 0 11 11" version="1.1" xmlns="http://www.w3.org/2000/svg" xmlns:xlink="http://www.w3.org/1999/xlink">
    <!-- Generator: Sketch 48.2 (47327) - http://www.bohemiancoding.com/sketch -->
    <title>phone-receiver</title>
    <desc>Created with Sketch.</desc>
    <defs></defs>
    <g id="Главная-ver.33" stroke="none" stroke-width="1" fill="none" fill-rule="evenodd" transform="translate(-1080.000000, -56.000000)">
        <g id="header" fill="#45B7FF" fill-rule="nonzero">
            <g id="Меню" transform="translate(70.000000, 22.000000)">
                <g id="phone-receiver" transform="translate(1010.000000, 34.000000)">
                    <path d="M10.9947569,8.68112904 C11.0180658,8.85982009 10.9636466,9.01518705 10.8317278,9.14722993 L9.28295183,10.6853057 C9.21308223,10.7629892 9.12188263,10.8290773 9.00931495,10.8833986 C8.89674727,10.9377961 8.78613944,10.9727537 8.67749146,10.9882713 C8.66972817,10.9882713 8.64638123,10.9902705 8.60754576,10.9941547 C8.5687864,10.9980198 8.51832503,11 8.45621872,11 C8.30867819,11 8.06993805,10.9747529 7.7399983,10.9242396 C7.41005856,10.8737263 7.0063866,10.7494137 6.52898243,10.5513589 C6.0514641,10.353266 5.50999378,10.0560886 4.90447633,9.65994091 C4.29895888,9.26381227 3.65458693,8.71998982 2.97141757,8.0285878 C2.4279874,7.49257178 1.97771669,6.9798608 1.62060543,6.49047391 C1.26349418,6.00104893 0.976252515,5.54854266 0.758880446,5.13293603 C0.54148935,4.71732941 0.378460298,4.34056452 0.269774264,4.00264138 C0.16108823,3.66471823 0.0873369919,3.37340518 0.0485205511,3.12870221 C0.00970411021,2.88399925 -0.00582246613,2.69173263 0.00194082204,2.55190236 C0.00970411021,2.4120721 0.0135857543,2.33438861 0.0135857543,2.31885192 C0.0291123306,2.21009504 0.0640471274,2.09939608 0.118390145,1.98675504 C0.172733162,1.87411399 0.238721111,1.7828359 0.316353993,1.71292076 L1.86512998,0.163135311 C1.97381602,0.0543784369 2.09802863,0 2.23776781,0 C2.33869056,0 2.42796837,0.0291313055 2.50560126,0.0873939165 C2.58323414,0.145656528 2.64922209,0.217513748 2.7035651,0.302965577 L3.94957286,2.66842758 C4.01944245,2.79272115 4.03885067,2.92866725 4.00779752,3.07626586 C3.97674436,3.22386448 3.91075642,3.34815805 3.80983367,3.44914657 L3.23923199,4.02012016 C3.22370541,4.03565686 3.21011966,4.06090399 3.19847473,4.09586155 C3.18682979,4.13081912 3.18100733,4.15995043 3.18100733,4.18325547 C3.21206048,4.34639078 3.28193007,4.53283114 3.39061611,4.74257654 C3.48377557,4.92901689 3.6273964,5.15624107 3.8214786,5.42424909 C4.01556081,5.6922571 4.29115754,6.00102989 4.64826879,6.35060556 C4.99761676,6.70798766 5.30814829,6.98566802 5.57986337,7.18379898 C5.85152137,7.3818157 6.07867366,7.52752934 6.26111094,7.62074952 C6.44354821,7.7139697 6.58328739,7.77029022 6.68030947,7.78965397 L6.82583307,7.81880432 C6.84135964,7.81880432 6.86664741,7.81295902 6.90154415,7.80132553 C6.93647895,7.78965397 6.96170964,7.7760784 6.97725524,7.76052267 L7.64099735,7.08467638 C7.78081265,6.96040185 7.94376559,6.89825506 8.13010353,6.89825506 C8.26211749,6.89825506 8.3668648,6.92154107 8.44449768,6.9681702 L8.45612358,6.9681702 L10.7035765,8.29655773 C10.8666626,8.39762241 10.9636847,8.52576208 10.9947569,8.68112904 Z" id="Shape"></path>
                </g>
            </g>
        </g>
    </g>
</svg>