<?xml version="1.0" encoding="UTF-8"?>
<svg width="23px" height="13px" viewBox="0 0 23 13" version="1.1" xmlns="http://www.w3.org/2000/svg" xmlns:xlink="http://www.w3.org/1999/xlink">
    <!-- Generator: Sketch 48.2 (47327) - http://www.bohemiancoding.com/sketch -->
    <title>vk (1)</title>
    <desc>Created with Sketch.</desc>
    <defs></defs>
    <g id="footer-1" stroke="none" stroke-width="1" fill="none" fill-rule="evenodd" transform="translate(-1121.000000, -46.000000)" opacity="0.699999988">
        <g id="Group-8" transform="translate(1121.000000, 42.000000)" fill="#FFFFFF" fill-rule="nonzero">
            <g id="vk-(1)" transform="translate(0.000000, 4.000000)">
                <path d="M19.7947773,8.18969082 C20.557716,8.92679141 21.362973,9.62029561 22.047245,10.4317269 C22.3495187,10.7923132 22.6356963,11.1644155 22.854618,11.5828811 C23.1648263,12.1777512 22.8838629,12.8323701 22.3448334,12.8678904 L18.99413,12.8663948 C18.1299296,12.9373604 17.440519,12.5930761 16.8608336,12.0083759 C16.3969192,11.5407803 15.9673127,11.0431233 15.5212324,10.5597493 C15.3383568,10.3621821 15.146942,10.1762805 14.918272,10.0293389 C14.4608564,9.73553067 14.0638199,9.82549029 13.8024288,10.2975727 C13.5362013,10.7777312 13.4758221,11.3094128 13.4496754,11.8445342 C13.4137804,12.625306 13.1752865,12.8305754 12.382725,12.86632 C10.6889346,12.9453618 9.08144328,12.6917849 7.58813585,11.8462541 C6.27158295,11.100853 5.25065367,10.0485573 4.36204469,8.85724656 C2.63190586,6.53751466 1.30696486,3.9885091 0.116157792,1.3680892 C-0.151883372,0.777705806 0.0441410936,0.46079069 0.702417547,0.44957378 C1.79551465,0.428560767 2.88846062,0.430056355 3.98284239,0.448078192 C4.4271091,0.45450922 4.72122137,0.706665372 4.89276167,1.12199018 C5.48416007,2.56097026 6.2078032,3.9300316 7.11613554,5.1990381 C7.35803003,5.53689145 7.60468533,5.87474479 7.95592732,6.1125433 C8.34450011,6.37584158 8.64035045,6.28857402 8.82315044,5.86023759 C8.93914796,5.58863879 8.98992993,5.29610176 9.0160766,5.00520988 C9.102678,4.00443711 9.11408883,3.00538427 8.96219632,2.00812613 C8.8689449,1.38573714 8.51468018,0.982825713 7.8870845,0.865048151 C7.56682556,0.805000289 7.61450923,0.687073168 7.76957561,0.506181789 C8.03890144,0.194202113 8.29220676,0 8.79715491,0 L12.5839637,0 C13.1801229,0.116431533 13.3125188,0.381449742 13.3941327,0.975048655 L13.3973821,5.13749465 C13.3908832,5.36729176 13.5133796,6.04920515 13.9316508,6.20130645 C14.2664189,6.30958703 14.4870786,6.04456882 14.6879395,5.83451347 C15.5946093,4.88227254 16.2417016,3.75691728 16.8198,2.59162982 C17.0763548,2.07924134 17.296939,1.5471111 17.510722,1.01542953 C17.6691134,0.620893395 17.9176579,0.426766061 18.366761,0.435365693 L22.01135,0.438581207 C22.1194129,0.438581207 22.2287604,0.440151575 22.3334226,0.457874294 C22.9475671,0.561443769 23.115858,0.822872567 22.9261813,1.41632192 C22.6273082,2.34740029 22.0458092,3.12331139 21.4772325,3.9028119 C20.8694357,4.73503189 20.2193962,5.53876093 19.6166626,6.37591636 C19.0628972,7.14038622 19.106878,7.52572449 19.7947773,8.18969082 Z" id="XMLID_807_"></path>
            </g>
        </g>
    </g>
</svg>